<svg xmlns="http://www.w3.org/2000/svg" xmlns:xlink="http://www.w3.org/1999/xlink" width="60" height="60" viewBox="0 0 60 60">
  <defs>
    <clipPath id="clip-path">
      <rect id="View_box" data-name="View box" width="60" height="60" transform="translate(-6.736 -7.112)" fill="none"/>
    </clipPath>
  </defs>
  <g id="Icon_24_Install" data-name="Icon / 24 / Install" transform="translate(6.736 7.112)" clip-path="url(#clip-path)">
    <g id="back" transform="translate(2.12 0.658)" fill="none" stroke-linejoin="round">
      <path d="M6.86,46.1h0l-9.58-9.58,15.71-15.71,9.583,9.582L6.861,46.1ZM29.305,23.652h0L19.723,14.07,22.8,11a11.085,11.085,0,0,1,.429-4.945,10.886,10.886,0,0,1,2.684-4.374l.231-.231A11,11,0,0,1,40.084.114L34.394,5.8,34.16,9.239,37.594,9,43.28,3.318a11.015,11.015,0,0,1-1.353,13.918l-.231.231a10.88,10.88,0,0,1-4.373,2.685,11.116,11.116,0,0,1-4.946.429l-3.07,3.07Z" stroke="none"/>
      <path d="M 6.859804630279541 43.26958465576172 L 19.74210357666016 30.38727569580078 L 12.98802661895752 23.63359260559082 L 0.1059247255325317 36.51570129394531 L 6.859804630279541 43.26958465576172 M 29.30547142028809 20.82390785217285 L 30.9623851776123 19.16699409484863 C 31.40637397766113 18.72299385070801 32.03310775756836 18.51328277587891 32.65490341186523 18.60066413879395 C 33.06682586669922 18.65854263305664 33.48889541625977 18.68789291381836 33.909423828125 18.6878833770752 C 34.86738586425781 18.68786430358887 35.80844497680664 18.54030418395996 36.70510482788086 18.2497444152832 C 38.06248474121094 17.80881309509277 39.26571655273438 17.06989288330078 40.28188705444336 16.05299377441406 L 40.51318359375 15.82168388366699 C 42.94210433959961 13.39277362823486 43.72772216796875 9.84718132019043 42.72188949584961 6.704930305480957 L 39.00810623168945 10.41871356964111 C 38.6663932800293 10.76043319702148 38.21250534057617 10.96686363220215 37.73036575317383 10.99984359741211 L 34.29597473144531 11.23474311828613 C 33.71944046020508 11.27417373657227 33.15394592285156 11.06227493286133 32.74529647827148 10.65362358093262 C 32.33663558959961 10.24496364593506 32.12473678588867 9.679513931274414 32.16416549682617 9.102933883666992 L 32.39905548095703 5.668533325195312 C 32.43202590942383 5.186453342437744 32.6384162902832 4.732613563537598 32.98006439208984 4.390903472900391 L 36.70637893676758 0.6640019416809082 C 35.81720352172852 0.3747898936271667 34.88274765014648 0.2259834855794907 33.93040466308594 0.2259834855794907 C 32.75483703613281 0.2259834855794907 31.60770606994629 0.4501634836196899 30.52089500427246 0.892303466796875 C 29.40588569641113 1.345923542976379 28.40754508972168 2.008793592453003 27.55383491516113 2.86228346824646 L 27.32302474975586 3.093113422393799 C 26.30532455444336 4.111543655395508 25.56645584106445 5.315103530883789 25.12667465209961 6.671243667602539 C 24.70612525939941 7.966023445129395 24.58472442626953 9.365583419799805 24.77559471130371 10.7186336517334 C 24.86335563659668 11.34075355529785 24.65368461608887 11.9679536819458 24.20941543579102 12.41222381591797 L 22.55179214477539 14.0698413848877 L 29.30547142028809 20.82390785217285 M 6.859795093536377 46.09799194335938 L 6.858005046844482 46.0962028503418 L -2.722494840621948 36.51570510864258 L 12.98798561096191 20.80521392822266 L 22.57056427001953 30.38723373413086 L 6.859795093536377 46.09799194335938 Z M 29.3054256439209 23.65236282348633 L 19.7234058380127 14.06979370117188 L 22.79520606994629 10.99800395965576 C 22.56209564208984 9.345563888549805 22.71063423156738 7.635463714599609 23.22449493408203 6.053403377532959 C 23.76232528686523 4.394933700561523 24.66528511047363 2.92331337928772 25.90830612182617 1.67940354347229 L 26.13959503173828 1.448103547096252 C 27.18322563171387 0.4047334790229797 28.40374565124512 -0.4055564999580383 29.76722526550293 -0.9602565169334412 C 31.09451484680176 -1.500226497650146 32.49522399902344 -1.774016499519348 33.93040466308594 -1.774016499519348 C 36.13560485839844 -1.774016499519348 38.26355361938477 -1.121046543121338 40.08419418334961 0.1143034920096397 L 34.39439392089844 5.805003643035889 L 34.15950393676758 9.23940372467041 L 37.59389495849609 9.00450325012207 L 43.28009414672852 3.31830358505249 C 46.21117401123047 7.668553352355957 45.64162445068359 13.52168369293213 41.92739486694336 17.23590278625488 L 41.69609451293945 17.46720314025879 C 40.45502471923828 18.70917320251465 38.98370361328125 19.6124439239502 37.32299423217773 20.15190315246582 C 36.22554397583008 20.50753402709961 35.07706451416016 20.68786430358887 33.90945434570312 20.6878833770752 C 33.39614486694336 20.68789291381836 32.88042449951172 20.65200424194336 32.37659454345703 20.58120346069336 L 29.3054256439209 23.65236282348633 Z" stroke="none" fill="#fff"/>
    </g>
    <g id="front" transform="translate(49.527 34.778) rotate(135)" fill="none" stroke-linejoin="round">
      <path d="M7.919,56.009h0A11.007,11.007,0,0,1-1,45.206v-.328A10.883,10.883,0,0,1,.2,39.888a11.1,11.1,0,0,1,3.193-3.8V0H16.94V36.086a11.1,11.1,0,0,1,3.194,3.8,10.883,10.883,0,0,1,1.195,4.991v.328A11.013,11.013,0,0,1,12.444,56V47.962l-2.263-2.595L7.919,47.962v8.046Z" stroke="none"/>
      <path d="M 5.919100284576416 53.23109436035156 L 5.919100284576416 47.96190643310547 C 5.919100284576416 47.4786262512207 6.094090461730957 47.01169586181641 6.411710262298584 46.64745712280273 L 8.674310684204102 44.05275726318359 C 9.054130554199219 43.6171875 9.603790283203125 43.36720657348633 10.18170070648193 43.36720657348633 C 10.75961017608643 43.36720657348633 11.30926990509033 43.6171875 11.68909072875977 44.05275726318359 L 13.95169067382812 46.64745712280273 C 14.26930999755859 47.01169586181641 14.44430065155029 47.4786262512207 14.44430065155029 47.96190643310547 L 14.44430065155029 53.21318817138672 C 17.37669563293457 51.70270538330078 19.32820129394531 48.64046859741211 19.32820129394531 45.20609664916992 L 19.32820129394531 44.87850570678711 C 19.32820129394531 43.43998718261719 18.99975967407227 42.06656646728516 18.35198974609375 40.79641723632812 C 17.73307037353516 39.58281707763672 16.82864952087402 38.50654602050781 15.73652076721191 37.6839485168457 C 15.23484039306641 37.30607604980469 14.93980026245117 36.7144775390625 14.93980026245117 36.08640670776367 L 14.93980026245117 2.000006675720215 L 5.388500213623047 2.000006675720215 L 5.388500213623047 36.08729553222656 C 5.388500213623047 36.71540832519531 5.093420505523682 37.30703735351562 4.591690540313721 37.68489837646484 C 3.500030279159546 38.50705718994141 2.595920324325562 39.58301544189453 1.977120399475098 40.79646682739258 C 1.329410314559937 42.06660842895508 1.00100040435791 43.44000625610352 1.00100040435791 44.87850570678711 L 1.00100040435791 45.20609664916992 C 1.00100040435791 48.65729522705078 2.965983390808105 51.72750473022461 5.919100284576416 53.23109436035156 M 7.919100284576416 56.00918579101562 L 7.917910575866699 56.00895690917969 C 2.751100301742554 55.01903533935547 -0.9989996552467346 50.47577667236328 -0.9989996552467346 45.20609664916992 L -0.9989996552467346 44.87850570678711 C -0.9989996552467346 43.12115859985352 -0.5971396565437317 41.44206619262695 0.1954103708267212 39.88788604736328 C 0.9514303803443909 38.40536499023438 2.055580377578735 37.09114837646484 3.388500452041626 36.08729553222656 L 3.388500452041626 6.710205070703523e-06 L 16.93980026245117 6.710205070703523e-06 L 16.93980026245117 36.08640670776367 C 18.27313995361328 37.0906867980957 19.37770080566406 38.40545654296875 20.13367080688477 39.88777542114258 C 20.92630004882812 41.44198608398438 21.32820129394531 43.1211051940918 21.32820129394531 44.87850570678711 L 21.32820129394531 45.20609664916992 C 21.32820129394531 50.45889663696289 17.59197998046875 54.99945831298828 12.44430065155029 56.00252532958984 L 12.44430065155029 47.96190643310547 L 10.18170070648193 45.36720657348633 L 7.919100284576416 47.96190643310547 L 7.919100284576416 56.00918579101562 Z" stroke="none" fill="#fff"/>
    </g>
    <ellipse id="dot" cx="2.259" cy="2.259" rx="2.259" ry="2.259" transform="translate(7.999 33.636)" fill="#fff"/>
    <ellipse id="dot-2" data-name="dot" cx="2.259" cy="2.259" rx="2.259" ry="2.259" transform="translate(34.012 33.636)" fill="#fff"/>
  </g>
</svg>
