<svg xmlns="http://www.w3.org/2000/svg" xmlns:xlink="http://www.w3.org/1999/xlink" width="64" height="64" viewBox="0 0 64 64">
  <defs>
    <clipPath id="clip-path">
      <rect id="mask" width="64" height="64" fill="none"/>
    </clipPath>
  </defs>
  <g id="Icon_Exclusive_Pricing" data-name="Icon / Exclusive Pricing" clip-path="url(#clip-path)">
    <path id="패스_16" data-name="패스 16" d="M56.616,3.788a3.253,3.253,0,0,0-3.165-.64,7.384,7.384,0,0,0-3.112,1.871l-1.88,1.667-.167.148H31.524l-.293.292L2.708,35.649,2,36.356l.708.707L23.22,57.576l.708.707.707-.707L53.159,29.053l.292-.293V12.039c.513-.324.995-.636,1.425-.925A13.05,13.05,0,0,0,56.868,9.58a3.889,3.889,0,0,0,1.107-3.189,4.418,4.418,0,0,0-1.359-2.6M53.451,9.66l.309-.207a12.126,12.126,0,0,0,1.645-1.236,1.9,1.9,0,0,0,.585-1.579,2.427,2.427,0,0,0-.756-1.4,1.285,1.285,0,0,0-1.271-.153,5.412,5.412,0,0,0-2.249,1.389l-.016.015-.017.016-.375.332h2.144V9.66Zm-4.4-.827h2.4v2.1c-.253.157-.513.316-.777.477-1.227.745-2.531,1.513-3.735,2.212l-.085-.088a4.464,4.464,0,1,0,1.1,1.811c1.127-.653,2.339-1.367,3.5-2.068V27.932L23.928,55.455l-19.1-19.1L32.352,8.833H49.025l.011.012Zm-3.941,5.836c-.361.205-.7.4-1.008.568l-.872.489.977,1.745.872-.489c.324-.181.681-.383,1.064-.6a2.467,2.467,0,1,1-1.033-1.713m-14.316,7v-1h-2V41.336h2V21.668ZM21.58,29.9a1.709,1.709,0,1,1,1.709,1.708A1.708,1.708,0,0,1,21.58,29.9M23.289,26.2A3.708,3.708,0,1,0,27,29.9,3.709,3.709,0,0,0,23.289,26.2m13.328,3.095A1.708,1.708,0,1,0,38.327,31a1.709,1.709,0,0,0-1.709-1.708M32.908,31a3.709,3.709,0,1,1,3.709,3.708A3.709,3.709,0,0,1,32.908,31" transform="translate(0.667 1)" fill-rule="evenodd"/>
  </g>
</svg>
