<svg xmlns="http://www.w3.org/2000/svg" xmlns:xlink="http://www.w3.org/1999/xlink" width="64" height="64" viewBox="0 0 64 64">
  <defs>
    <clipPath id="clip-path">
      <rect id="View_box" data-name="View box" width="64" height="64" transform="translate(-6.736 -7.111)" fill="none"/>
    </clipPath>
  </defs>
  <g id="Icon_64_Install" data-name="Icon / 64 / Install" transform="translate(6.736 7.111)" clip-path="url(#clip-path)">
    <g id="back" transform="translate(-0.194 -0.716)" fill="none" stroke-linejoin="round">
      <path d="M10.22,51.064h0L0,40.843,16.758,24.084,26.979,34.305,10.221,51.063ZM34.163,27.121h0L23.942,16.9l3.022-3.022A11.016,11.016,0,0,1,30.021,4.2L31.3,2.919a10.991,10.991,0,0,1,7.078-3.2c.233-.015.469-.022.7-.022a11.038,11.038,0,0,1,6.654,2.24L39.591,8.085l-.249,3.664L43,11.5l6.144-6.144a11,11,0,0,1-1,14.406l-1.284,1.283A11.018,11.018,0,0,1,37.184,24.1l-3.021,3.021Z" stroke="none"/>
      <path d="M 10.22040462493896 48.23578643798828 L 24.15088844299316 34.30529403686523 L 16.75800895690918 26.91241264343262 L 2.827527284622192 40.8428955078125 L 10.22040462493896 48.23578643798828 M 34.16310882568359 24.2930736541748 L 35.77019882202148 22.68598365783691 C 36.23068618774414 22.22548675537109 36.88653564453125 22.01802444458008 37.52811050415039 22.12994384765625 C 38.03754806518555 22.21881294250488 38.55791854858398 22.26387405395508 39.07474899291992 22.26386260986328 C 40.25918960571289 22.26384353637695 41.41588973999023 22.03490257263184 42.51271820068359 21.58338356018066 C 43.61747741699219 21.12860298156738 44.60471725463867 20.4709529876709 45.44748687744141 19.62820243835449 L 46.73095703125 18.34561347961426 C 48.27669906616211 16.79914283752441 49.20623779296875 14.74756336212158 49.34829711914062 12.56966304779053 C 49.43653869628906 11.20797824859619 49.21603775024414 9.856643676757812 48.71629333496094 8.614326477050781 L 44.41891860961914 12.91170310974121 C 44.07727813720703 13.25335311889648 43.62350845336914 13.4597635269165 43.14148712158203 13.49281311035156 L 39.47848892211914 13.7439136505127 C 38.90203475952148 13.7834300994873 38.33656311035156 13.57166385650635 37.92784881591797 13.16316318511963 C 37.51913833618164 12.75466346740723 37.30709838867188 12.18934345245361 37.34631729125977 11.61282348632812 L 37.59561920166016 7.948923110961914 C 37.62844848632812 7.466533184051514 37.83490753173828 7.012363433837891 38.17679977416992 6.670473098754883 L 42.48340225219727 2.363884210586548 C 41.2348518371582 1.856310844421387 39.8701171875 1.628616452217102 38.5087890625 1.715193271636963 C 36.32559967041016 1.853533267974854 34.26926803588867 2.783313274383545 32.71941757202148 4.332423210144043 L 31.43526840209961 5.617473125457764 C 29.36527824401855 7.686713218688965 28.43031883239746 10.64624309539795 28.93423843383789 13.53420352935791 C 29.04618835449219 14.17578315734863 28.8387393951416 14.83168315887451 28.37822914123535 15.29220294952393 L 26.77023124694824 16.90020561218262 L 34.16310882568359 24.2930736541748 M 10.22040843963623 51.06420135498047 L -0.0008913116180337965 40.84289169311523 L 16.75800895690918 24.08399391174316 L 26.97930908203125 34.30529403686523 L 10.22040843963623 51.06420135498047 Z M 34.16310882568359 27.12148284912109 L 34.16239929199219 27.12078285217285 L 23.94180870056152 16.90020370483398 L 26.96400833129883 13.8779935836792 C 26.3482780456543 10.34925365447998 27.49129867553711 6.73210334777832 30.02130889892578 4.203003406524658 L 31.30470848083496 2.918703317642212 C 33.19970703125 1.024603247642517 35.71323776245117 -0.1116767823696136 38.38230895996094 -0.2808067798614502 C 38.61532974243164 -0.2956167757511139 38.85167694091797 -0.3031267821788788 39.08478927612305 -0.3031267821788788 C 41.47993850708008 -0.3031267821788788 43.84309005737305 0.4923632144927979 45.73890686035156 1.936813235282898 L 39.59100723266602 8.08469295501709 L 39.34170913696289 11.7485933303833 L 43.00470733642578 11.49749279022217 L 49.14900970458984 5.353193283081055 C 50.73608779907227 7.451303005218506 51.51511764526367 10.06006336212158 51.34410858154297 12.69899368286133 C 51.1703987121582 15.36218357086182 50.03445053100586 17.86965370178223 48.1455078125 19.75949287414551 L 46.86120986938477 21.04290390014648 C 45.8311882019043 22.07290267944336 44.62429046630859 22.87698364257812 43.27404022216797 23.43281364440918 C 41.93449783325195 23.98424339294434 40.52165985107422 24.26384353637695 39.07477951049805 24.26386260986328 C 38.44302749633789 24.26387405395508 37.8070182800293 24.20880317687988 37.18441009521484 24.10019302368164 L 34.16310882568359 27.12148284912109 Z" stroke="none" fill="#000"/>
    </g>
    <g id="front" transform="translate(54.032 36.817) rotate(135)" fill="none" stroke-linejoin="round">
      <path d="M9.512,59.854h0A11,11,0,0,1,0,48.954V47.137a11.023,11.023,0,0,1,4.68-9V0H19.135V38.133a11.019,11.019,0,0,1,4.681,9v1.816a11,11,0,0,1-9.477,10.9V51.16l-2.413-2.768L9.512,51.16v8.693Z" stroke="none"/>
      <path d="M 7.512099742889404 57.25241851806641 L 7.512099742889404 51.15960693359375 C 7.512099742889404 50.6762580871582 7.687139987945557 50.20925903320312 8.004849433898926 49.84499740600586 L 10.41864967346191 47.07748794555664 C 10.79851055145264 46.6419677734375 11.34794521331787 46.39077377319336 11.92607975006104 46.39209747314453 C 12.50399017333984 46.39214706420898 13.05360984802246 46.64217758178711 13.43338966369629 47.07776641845703 L 15.84628963470459 49.84527587890625 C 16.16385078430176 50.20949935913086 16.33880043029785 50.67638778686523 16.33880043029785 51.15960693359375 L 16.33880043029785 57.2374153137207 C 17.57087516784668 56.7125358581543 18.68203926086426 55.91313552856445 19.58210945129395 54.88793563842773 C 21.02252960205078 53.24727630615234 21.81579971313477 51.13978576660156 21.81579971313477 48.95369720458984 L 21.81579971313477 47.13749694824219 C 21.81579971313477 44.20963668823242 20.38368988037109 41.45516586303711 17.98489952087402 39.76930618286133 C 17.45203971862793 39.39480590820312 17.1348991394043 38.78429794311523 17.1348991394043 38.13299560546875 L 17.1348991394043 1.999997496604919 L 6.679999828338623 1.999997496604919 L 6.679999828338623 38.13299560546875 C 6.679999828338623 38.7840461730957 6.363110065460205 39.39434814453125 5.830589771270752 39.76888656616211 C 3.431989908218384 41.45590591430664 1.99999988079071 44.21052932739258 1.99999988079071 47.13749694824219 L 1.99999988079071 48.95369720458984 C 1.99999988079071 51.14491653442383 2.796499967575073 53.25612640380859 4.242769718170166 54.89840698242188 C 5.15007209777832 55.92867279052734 6.270323276519775 56.72972106933594 7.512099742889404 57.25241851806641 M 9.512100219726562 59.85369873046875 L 9.510970115661621 59.85354614257812 C 6.897779941558838 59.49994659423828 4.49377965927124 58.20959854125977 2.741829872131348 56.22021865844727 C 0.9737298488616943 54.21248626708984 -1.434326151183996e-07 51.63185882568359 -1.434326151183996e-07 48.95369720458984 L -1.434326151183996e-07 47.13749694824219 C -1.434326151183996e-07 43.56026840209961 1.749529838562012 40.19410705566406 4.679999828338623 38.13299560546875 L 4.679999828338623 -2.542114316383959e-06 L 19.1348991394043 -2.542114316383959e-06 L 19.1348991394043 38.13299560546875 C 22.06576919555664 40.19280624389648 23.81579971313477 43.55927658081055 23.81579971313477 47.13749694824219 L 23.81579971313477 48.95369720458984 C 23.81579971313477 51.62560653686523 22.84601020812988 54.20170593261719 21.08506965637207 56.20745849609375 C 19.34036064147949 58.19469833374023 16.94447898864746 59.48791885375977 14.33879947662354 59.84889602661133 L 14.33879947662354 51.15960693359375 L 11.92589950561523 48.39209747314453 L 9.512100219726562 51.15960693359375 L 9.512100219726562 59.85369873046875 Z" stroke="none" fill="#000"/>
    </g>
    <ellipse id="dot" cx="2.409" cy="2.409" rx="2.409" ry="2.409" transform="translate(8.981 36.353)"/>
    <ellipse id="dot-2" data-name="dot" cx="2.409" cy="2.409" rx="2.409" ry="2.409" transform="translate(36.729 36.353)"/>
  </g>
</svg>
