<svg xmlns="http://www.w3.org/2000/svg" xmlns:xlink="http://www.w3.org/1999/xlink" width="64" height="64" viewBox="0 0 64 64">
  <defs>
    <clipPath id="clip-path">
      <rect id="mask" width="64" height="64" fill="none"/>
    </clipPath>
  </defs>
  <g id="Icon_Welcome_Coupon_" data-name="Icon / Welcome Coupon " clip-path="url(#clip-path)">
    <path id="패스_15" data-name="패스 15" d="M26.773,47.15H3.75v-32.4h9.375l9.588-9.587L24.126,3.75l1.416,1.415,9.585,9.587H57.75v32.4H47.97l-9.183,9.184-1.416,1.415-1.413-1.415Zm18.369,0H29.6l7.769,7.771ZM32.3,14.751H15.954l8.172-8.173Zm-26.551,2h36.8v6.469c-.139-.205-.283-.4-.431-.593A7.1,7.1,0,0,0,39.645,20.5a3.11,3.11,0,0,0-3.155.164,3.768,3.768,0,0,0-1.319,4.707H5.75Zm31.4,17.027,4.283-4.284a10.537,10.537,0,0,1-4.76-2.127H5.75V45.15h36.8V31.211l-3.98,3.98a1,1,0,0,1-1.413-1.413m7.393-9.2V16.751h11.2v8.616H52.722A3.767,3.767,0,0,0,51.4,20.661a3.112,3.112,0,0,0-3.156-.164,7.124,7.124,0,0,0-2.471,2.131,12.684,12.684,0,0,0-1.232,1.948m1.913,4.919,4.283,4.284a1,1,0,1,1-1.415,1.413L44.546,30.41V45.15h11.2V27.367H51.217a10.519,10.519,0,0,1-4.757,2.127M38.8,22.309a1.125,1.125,0,0,0-1.2.016,1.842,1.842,0,0,0-.407,2.613c.607,1.011,2.137,2.179,5.195,2.7a10.585,10.585,0,0,0-1.851-3.788A5.182,5.182,0,0,0,38.8,22.309m11.5.016a1.128,1.128,0,0,0-1.2-.016,5.194,5.194,0,0,0-1.737,1.544,10.585,10.585,0,0,0-1.851,3.788c3.057-.524,4.588-1.692,5.195-2.7a1.843,1.843,0,0,0-.405-2.613" transform="translate(1.25 1.25)" fill-rule="evenodd"/>
  </g>
</svg>
