<svg xmlns="http://www.w3.org/2000/svg" xmlns:xlink="http://www.w3.org/1999/xlink" width="60" height="60" viewBox="0 0 60 60">
  <defs>
    <clipPath id="clip-path">
      <rect id="View_box" data-name="View box" width="60" height="60" transform="translate(-6.736 -7.112)" fill="none"/>
    </clipPath>
    <clipPath id="clip-path-2">
      <rect id="view_box-2" data-name="view box" width="52" height="52" transform="translate(0.37 0.37)" fill="none"/>
    </clipPath>
  </defs>
  <g id="Icon_24_Install" data-name="Icon / 24 / Install" transform="translate(6.736 7.112)" clip-path="url(#clip-path)">
    <g id="ic" transform="translate(-3.106 -3.481)" clip-path="url(#clip-path-2)">
      <path id="패스_1766" data-name="패스 1766" d="M37.475,35.42c.9.034,2.485-.948,1.972-1.835l-1.066-1.854L36.1,33.045Z" transform="translate(-6.81 -5.985)" fill="#fff"/>
      <path id="패스_1767" data-name="패스 1767" d="M32.481,27.318l1.083,1.88-.686.4,2.872.77.768-2.871-.689.4c-.157-.273-.467-.811-.726-1.256a1.888,1.888,0,0,0-1.03-.823,3.059,3.059,0,0,0-.9-.106,13,13,0,0,0-2.261.26,2.854,2.854,0,0,1,.672.363,3.125,3.125,0,0,1,.894.987" transform="translate(-5.831 -4.849)" fill="#fff"/>
      <path id="패스_1768" data-name="패스 1768" d="M28.129,39.421h2.14V36.79H27.527c-.481.764-.424,2.631.6,2.631" transform="translate(-5.137 -6.939)" fill="#fff"/>
      <path id="패스_1769" data-name="패스 1769" d="M36.512,36.616H34.34v-.8l-2.106,2.1,2.106,2.106v-.8c.315,0,.936,0,1.451,0a1.881,1.881,0,0,0,1.225-.477,8.967,8.967,0,0,0,1.447-2.813,2.934,2.934,0,0,1-.65.4,3.109,3.109,0,0,1-1.3.283" transform="translate(-6.08 -6.756)" fill="#fff"/>
      <path id="패스_1770" data-name="패스 1770" d="M31.4,27.431a2.5,2.5,0,0,0-1.933-1.164.738.738,0,0,0-.646.372l-1.07,1.849,2.278,1.318Z" transform="translate(-5.234 -4.954)" fill="#fff"/>
      <path id="패스_1771" data-name="패스 1771" d="M24.691,34.642A8.962,8.962,0,0,0,26.4,37.3a2.824,2.824,0,0,1-.022-.76,3.122,3.122,0,0,1,.407-1.27l1.088-1.884.69.4-.77-2.87-2.876.769.69.4c-.157.271-.466.809-.721,1.256a1.9,1.9,0,0,0-.2,1.3" transform="translate(-4.649 -5.831)" fill="#fff"/>
      <path id="패스_1772" data-name="패스 1772" d="M14.763,19.048a1.805,1.805,0,0,0,1.8,1.8h.369l4.889,23.267H36.484l4.889-23.267h.369a1.8,1.8,0,0,0,0-3.606h-8.78a2.066,2.066,0,0,0,.126-.689v-.621A2.093,2.093,0,0,0,31,13.845H27.311a2.093,2.093,0,0,0-2.09,2.091v.621a2.066,2.066,0,0,0,.126.689h-8.78a1.805,1.805,0,0,0-1.8,1.8M35.228,42.57H23.081L18.548,21H39.761ZM26.769,15.936a.543.543,0,0,1,.542-.543H31a.543.543,0,0,1,.542.543v.621A.543.543,0,0,1,31,17.1H27.311a.543.543,0,0,1-.542-.543ZM42,19.048a.255.255,0,0,1-.255.255H16.567a.255.255,0,1,1,0-.51H41.743a.255.255,0,0,1,.255.255" transform="translate(-2.784 -2.611)" fill="#fff"/>
      <path id="패스_1773" data-name="패스 1773" d="M44.9,7.948A26.116,26.116,0,0,0,4.088,12.9l-2.9-.777a.707.707,0,0,0-.867.867l1.828,6.824a.707.707,0,0,0,.5.5.675.675,0,0,0,.183.025.709.709,0,0,0,.5-.208l4.995-4.995a.709.709,0,0,0-.318-1.186L5.52,13.279A24.7,24.7,0,0,1,51.141,26.425a.708.708,0,1,0,1.417,0A25.96,25.96,0,0,0,44.9,7.948" transform="translate(-0.055 -0.056)" fill="#fff"/>
      <path id="패스_1774" data-name="패스 1774" d="M51.858,39.132a.71.71,0,0,0-.709,0l-6.117,3.532a.71.71,0,0,0,0,1.23l2.423,1.4A24.7,24.7,0,0,1,1.717,32.336a.709.709,0,0,0-1.418,0,26.128,26.128,0,0,0,26.13,26.129h0A26.2,26.2,0,0,0,48.684,46l2.465,1.423a.709.709,0,0,0,1.064-.615V39.747a.709.709,0,0,0-.355-.615" transform="translate(-0.056 -5.965)" fill="#fff"/>
    </g>
  </g>
</svg>
