<svg xmlns="http://www.w3.org/2000/svg" xmlns:xlink="http://www.w3.org/1999/xlink" width="60" height="60" viewBox="0 0 60 60">
  <defs>
    <clipPath id="clip-path">
      <rect id="View_box" data-name="View box" width="60" height="60" transform="translate(-6.736 -7.112)" fill="none"/>
    </clipPath>
    <clipPath id="clip-path-2">
      <rect id="viewbox" width="32.727" height="52.037" transform="translate(0 0)" fill="none"/>
    </clipPath>
  </defs>
  <g id="Icon_24_Interest-free" data-name="Icon / 24 / Interest-free" transform="translate(6.736 7.112)" clip-path="url(#clip-path)">
    <g id="ic" transform="translate(7.9 -3.13)" clip-path="url(#clip-path-2)">
      <path id="패스_1775" data-name="패스 1775" d="M13.477,44.092a3.639,3.639,0,0,0-.741-1.675,3.687,3.687,0,0,0-1.46-1.1,8,8,0,0,1-2.35-1.226,7.2,7.2,0,0,1-1.564-4.993V13.733A7.246,7.246,0,0,1,8.912,8.739c1.018-1.128,2.662-1.7,4.885-1.7s3.867.571,4.885,1.7a7.246,7.246,0,0,1,1.55,4.993v11.42a3.641,3.641,0,0,0,3.634,3.639h.14a3.639,3.639,0,0,0,3.589-3.639V13.733a17.707,17.707,0,0,0-.874-5.774,11.559,11.559,0,0,0-2.646-4.352A11.135,11.135,0,0,0,19.721.894,18.045,18.045,0,0,0,13.8,0a17.869,17.869,0,0,0-5.9.9A11.2,11.2,0,0,0,3.535,3.622,11.656,11.656,0,0,0,.877,7.979,17.544,17.544,0,0,0,0,13.733V35.095a17.521,17.521,0,0,0,.873,5.734,11.721,11.721,0,0,0,2.645,4.359,10.633,10.633,0,0,0,2.433,1.872,12.72,12.72,0,0,0,3.015,1.2,3.688,3.688,0,0,0,.935.122,3.64,3.64,0,0,0,3.585-4.236Z" transform="translate(0 0)" fill="#fff"/>
      <path id="패스_1776" data-name="패스 1776" d="M35.67,48.795a4.448,4.448,0,0,0-1.639-1.269A5.156,5.156,0,0,0,31.91,47.1a5.087,5.087,0,0,0-2.106.424,4.421,4.421,0,0,0-1.627,1.27,6.978,6.978,0,0,0-1.312,4.484,7.084,7.084,0,0,0,1.311,4.53A4.424,4.424,0,0,0,29.8,59.089a5.058,5.058,0,0,0,2.108.426,5.112,5.112,0,0,0,2.124-.428A4.452,4.452,0,0,0,35.672,57.8a7.055,7.055,0,0,0,1.321-4.521,6.942,6.942,0,0,0-1.323-4.487M30.508,50.4a1.592,1.592,0,0,1,1.4-.723,1.614,1.614,0,0,1,1.413.727,5.22,5.22,0,0,1,.6,2.874,5.427,5.427,0,0,1-.6,2.92,1.712,1.712,0,0,1-2.815,0,5.425,5.425,0,0,1-.6-2.92,5.288,5.288,0,0,1,.595-2.878" transform="translate(-4.266 -7.479)" fill="#fff"/>
      <path id="패스_1777" data-name="패스 1777" d="M21.938,45.4a6.932,6.932,0,0,0,1.325-4.5,8.93,8.93,0,0,0-.332-2.527,5.855,5.855,0,0,0-.983-1.969,4.464,4.464,0,0,0-1.619-1.292,4.923,4.923,0,0,0-2.111-.447,5.106,5.106,0,0,0-2.123.429,4.44,4.44,0,0,0-1.633,1.287,7.1,7.1,0,0,0-1.309,4.519,6.97,6.97,0,0,0,1.314,4.5A4.407,4.407,0,0,0,16.1,46.664a5.175,5.175,0,0,0,2.119.42,5.082,5.082,0,0,0,2.093-.42,4.48,4.48,0,0,0,1.628-1.26M16.786,38h0a1.627,1.627,0,0,1,1.431-.734,1.588,1.588,0,0,1,1.4.73,5.382,5.382,0,0,1,.6,2.908,5.289,5.289,0,0,1-.594,2.878,1.593,1.593,0,0,1-1.4.723,1.632,1.632,0,0,1-1.433-.727,5.217,5.217,0,0,1-.6-2.874,5.313,5.313,0,0,1,.6-2.9" transform="translate(-2.088 -5.505)" fill="#fff"/>
      <path id="패스_1778" data-name="패스 1778" d="M29.77,36.568a1.4,1.4,0,0,0-1.868.642L19.539,54.334a1.4,1.4,0,1,0,2.51,1.226l8.362-17.123a1.4,1.4,0,0,0-.642-1.868" transform="translate(-3.08 -5.784)" fill="#fff"/>
    </g>
  </g>
</svg>
